<svg id="Layer_1" data-name="Layer 1" xmlns="http://www.w3.org/2000/svg" width="488.01" height="87.46" viewBox="0 0 488.01 87.46"><defs><style>.cls-1{fill:#2845ae;}.cls-2,.cls-3{fill:#5493f7;}.cls-2{opacity:0.22;}</style></defs><path class="cls-1" d="M136.24,36.89H119.6V25.79h45.31v11.1H148.27V80.48h-12Z" transform="translate(-3.99 -6.38)"/><path class="cls-1" d="M161.09,59.78v-.16c0-11.95,8.51-21.8,20.7-21.8,14,0,20.39,10.86,20.39,22.74,0,.94-.08,2-.16,3.12H172.88c1.18,5.39,4.93,8.21,10.24,8.21,4,0,6.87-1.25,10.15-4.3l6.8,6c-3.9,4.84-9.53,7.81-17.11,7.81C170.38,81.42,161.09,72.59,161.09,59.78Zm29.53-3.52c-.7-5.31-3.83-8.91-8.83-8.91s-8.13,3.52-9.06,8.91Z" transform="translate(-3.99 -6.38)"/><path class="cls-1" d="M209.45,38.6h11.87V47c2.43-5.78,6.33-9.53,13.36-9.22V50.25h-.62c-7.89,0-12.74,4.76-12.74,14.76V80.48H209.45Z" transform="translate(-3.99 -6.38)"/><path class="cls-1" d="M240.54,38.6h11.88V47c2.42-5.78,6.33-9.53,13.36-9.22V50.25h-.63c-7.89,0-12.73,4.76-12.73,14.76V80.48H240.54Z" transform="translate(-3.99 -6.38)"/><path class="cls-1" d="M267.19,68.45v-.16c0-9.14,6.95-13.36,16.87-13.36a29.92,29.92,0,0,1,10.24,1.72V56c0-4.92-3.05-7.66-9-7.66a30.73,30.73,0,0,0-11.56,2.27l-3-9.06A36.82,36.82,0,0,1,287,38.14c6.49,0,11.17,1.71,14.14,4.68,3.13,3.13,4.53,7.74,4.53,13.36v24.3H294.22V76c-2.89,3.2-6.88,5.31-12.66,5.31C273.67,81.26,267.19,76.73,267.19,68.45Zm27.26-2.74v-2.1A18.33,18.33,0,0,0,286.88,62c-5.08,0-8.21,2-8.21,5.78V68c0,3.2,2.66,5.08,6.49,5.08C290.7,73.06,294.45,70,294.45,65.71Z" transform="translate(-3.99 -6.38)"/><path class="cls-1" d="M325.27,53.76V53.6c0-15.46,11.56-28.28,27.35-28.28,9.76,0,15.62,3.6,21.25,8.75L371,37c-4.77-4.61-10.24-8-18.44-8-13.13,0-23.05,10.7-23.05,24.45v.15c0,13.83,10.08,24.62,23.13,24.62,7.89,0,13.28-3,18.82-8.52l2.74,2.66c-5.78,5.7-12,9.53-21.72,9.53C336.83,81.89,325.27,69.46,325.27,53.76Z" transform="translate(-3.99 -6.38)"/><path class="cls-1" d="M379.42,61.18V61A20.59,20.59,0,0,1,400,40.17a20.37,20.37,0,0,1,20.39,20.7V61a20.59,20.59,0,0,1-20.54,20.86C388,81.89,379.42,72.36,379.42,61.18Zm36.79,0V61c0-9.61-7.18-17.27-16.4-17.27-9.46,0-16.25,7.74-16.25,17.11V61c0,9.61,7.18,17.26,16.4,17.26C409.42,78.29,416.21,70.56,416.21,61.18Z" transform="translate(-3.99 -6.38)"/><path class="cls-1" d="M430.2,41.1H434V52.43c3.12-7.11,9.76-12.26,17.66-12V44.7h-.4c-9.21,0-17.26,6.95-17.26,19.92V81H430.2Z" transform="translate(-3.99 -6.38)"/><path class="cls-1" d="M454.81,61.11V61c0-11.56,8.13-20.78,18.91-20.78C484.89,40.17,492,49.23,492,61a9.75,9.75,0,0,1-.08,1.56H458.87c.71,9.92,7.82,15.7,15.63,15.7,6.17,0,10.39-2.73,13.67-6.25l2.66,2.35c-4.06,4.37-8.83,7.5-16.49,7.5C463.87,81.89,454.81,73.53,454.81,61.11Zm33.05-2c-.55-8-5.16-15.47-14.3-15.47-7.89,0-14,6.64-14.69,15.47Z" transform="translate(-3.99 -6.38)"/><circle class="cls-2" cx="43.73" cy="43.73" r="43.73"/><path class="cls-1" d="M91.45,50.11A43.73,43.73,0,0,1,4,50.11" transform="translate(-3.99 -6.38)"/><ellipse class="cls-3" cx="43.73" cy="43.73" rx="43.73" ry="13"/><ellipse class="cls-1" cx="43.73" cy="43.73" rx="17.73" ry="4.14"/><path class="cls-1" d="M30,50.11a17.73,17.73,0,0,1,35.46,0" transform="translate(-3.99 -6.38)"/></svg>